<svg width="800" height="158" viewBox="0 0 800 158" xmlns="http://www.w3.org/2000/svg">
  <!-- ① Reduced Order Model -->
  <rect x="1" y="12" width="235" height="102" rx="7" fill="#F0EDF7" stroke="#4B2E83" stroke-width="2.5"/>
  <text x="118" y="34" text-anchor="middle" font-size="11" font-weight="bold" fill="#4B2E83">&#x2460; REDUCED ORDER MODEL</text>
  <text x="118" y="60" text-anchor="middle" font-size="17" fill="#333" font-style="italic">X&#x2032; = &#x398;(X,U)&#x39E;</text>
  <text x="118" y="80" text-anchor="middle" font-size="10" fill="#555">SINDy dynamics surrogate</text>
  <text x="118" y="96" text-anchor="middle" font-size="10" fill="#555">enables simulator-free RL training</text>
  <text x="118" y="130" text-anchor="middle" font-size="9" fill="#8B6914">PILCO &#x2192; PETS &#x2192; DreamerV3 &#x2192; SINDy-RL</text>
  <!-- Arrow: ROM → NN Policy -->
  <line x1="236" y1="63" x2="288" y2="63" stroke="#4B2E83" stroke-width="2"/>
  <polygon points="288,59 296,63 288,67" fill="#4B2E83"/>
  <text x="262" y="53" text-anchor="middle" font-size="8.5" fill="#4B2E83">train RL</text>
  <text x="262" y="75" text-anchor="middle" font-size="8.5" fill="#4B2E83">in surrogate</text>
  <!-- NN Policy (intermediate) -->
  <rect x="296" y="32" width="152" height="62" rx="6" fill="#4B2E83"/>
  <text x="372" y="57" text-anchor="middle" font-size="12" font-weight="bold" fill="white">NN Policy</text>
  <text x="372" y="80" text-anchor="middle" font-size="13" fill="#E8D5A3" font-style="italic">u = &#x3C0;(x)</text>
  <!-- Arrow: NN Policy → Sparse Dictionary Policy -->
  <line x1="448" y1="63" x2="500" y2="63" stroke="#8B6914" stroke-width="2"/>
  <polygon points="500,59 508,63 500,67" fill="#8B6914"/>
  <text x="474" y="53" text-anchor="middle" font-size="8.5" fill="#8B6914">distill</text>
  <!-- ② Sparse Dictionary Policy -->
  <rect x="508" y="12" width="290" height="102" rx="7" fill="#FDF8EC" stroke="#8B6914" stroke-width="2.5"/>
  <text x="653" y="34" text-anchor="middle" font-size="11" font-weight="bold" fill="#8B6914">&#x2461; SPARSE DICTIONARY POLICY</text>
  <text x="653" y="60" text-anchor="middle" font-size="17" fill="#333" font-style="italic">u &#x2248; &#x398;(x)&#x3BE;</text>
  <text x="653" y="80" text-anchor="middle" font-size="10" fill="#555">interpretable polynomial control law</text>
  <text x="653" y="96" text-anchor="middle" font-size="10" fill="#555">distilled from the trained NN policy</text>
  <text x="653" y="130" text-anchor="middle" font-size="9" fill="#8B6914">ALVINN &#x2192; DAgger &#x2192; augmented BC</text>
</svg>
